<svg version="1.0" xmlns="http://www.w3.org/2000/svg"
 width="1092.000000pt" height="1080.000000pt" viewBox="0 0 1092.000000 1080.000000"
 preserveAspectRatio="xMidYMid meet">

<g transform="translate(0.000000,1080.000000) scale(0.100000,-0.100000)"
fill="#000000" stroke="none">
<path d="M5165 10594 c-99 -7 -198 -15 -220 -18 -22 -3 -80 -10 -130 -16 -49
-5 -110 -14 -135 -19 -25 -6 -85 -18 -135 -27 -286 -53 -588 -137 -875 -243
-273 -101 -739 -335 -941 -472 -32 -21 -60 -39 -64 -39 -7 0 -291 -205 -364
-263 -300 -237 -655 -593 -881 -883 -50 -64 -202 -274 -239 -332 -48 -73 -185
-298 -214 -352 -68 -126 -207 -411 -237 -485 -155 -385 -256 -713 -314 -1025
-9 -47 -21 -107 -26 -135 -83 -419 -89 -1145 -15 -1640 65 -435 199 -903 367
-1282 183 -415 406 -791 668 -1128 25 -31 54 -70 65 -85 79 -106 468 -519 539
-571 22 -16 78 -63 125 -105 187 -163 415 -330 666 -486 255 -159 624 -337
910 -439 413 -148 725 -224 1130 -275 61 -7 133 -18 160 -23 64 -12 922 -13
995 0 30 5 105 16 165 24 159 21 300 43 380 61 135 29 250 56 295 69 25 7 79
23 120 35 302 88 658 231 930 373 110 58 369 207 415 239 22 16 65 46 95 66
322 220 482 353 755 627 200 200 349 365 433 477 111 148 304 430 377 552 67
112 275 514 275 531 0 3 11 31 25 61 14 30 45 107 70 171 25 65 52 134 60 153
25 62 128 410 145 490 5 19 18 78 30 130 11 52 28 131 36 175 92 490 104 1160
30 1670 -16 117 -46 287 -51 296 -2 3 -9 37 -15 75 -30 186 -194 699 -291 913
-11 24 -29 65 -39 92 -11 26 -58 123 -106 216 -128 247 -141 272 -186 343 -23
36 -54 85 -69 110 -50 79 -133 200 -175 254 -22 28 -49 65 -60 81 -64 101
-276 345 -461 532 -221 223 -405 378 -733 618 -139 102 -504 316 -667 391 -54
25 -126 59 -160 75 -300 140 -724 276 -1068 343 -99 20 -200 40 -225 46 -25 5
-76 12 -115 15 -38 4 -88 10 -110 15 -59 14 -491 40 -635 39 -69 -1 -206 -7
-305 -15z m725 -703 c85 -6 162 -14 170 -17 8 -3 60 -12 115 -20 55 -8 132
-21 170 -28 39 -8 106 -21 150 -29 304 -58 839 -259 1140 -428 165 -93 205
-117 239 -141 21 -15 43 -28 47 -28 16 0 333 -232 449 -329 233 -195 547 -524
730 -768 282 -376 510 -811 658 -1258 79 -236 160 -566 177 -720 3 -33 11 -85
16 -116 31 -187 51 -776 30 -909 -5 -36 -15 -114 -20 -175 -15 -150 -37 -306
-55 -390 -43 -187 -55 -238 -93 -370 -113 -399 -354 -926 -535 -1172 -21 -29
-38 -55 -38 -58 0 -7 -162 -233 -229 -320 -21 -27 -104 -123 -184 -211 -207
-230 -498 -490 -730 -651 -419 -292 -846 -500 -1307 -637 -30 -9 -83 -25 -117
-36 -34 -11 -72 -20 -84 -20 -12 0 -45 -7 -73 -15 -77 -21 -182 -43 -271 -55
-44 -6 -107 -15 -140 -21 -122 -20 -435 -42 -605 -42 -262 0 -636 39 -925 96
-164 33 -464 121 -635 187 -74 28 -153 58 -175 67 -22 8 -130 59 -240 113
-270 132 -374 195 -732 447 -26 18 -62 47 -82 66 -20 19 -58 51 -86 71 -65 48
-345 306 -345 318 0 5 -42 53 -93 106 -51 53 -114 124 -139 157 -25 34 -54 67
-63 75 -10 8 -28 31 -41 50 -13 19 -36 53 -52 75 -178 251 -242 350 -340 530
-63 116 -179 364 -224 480 -72 187 -173 511 -198 635 -5 30 -17 87 -25 125
-55 253 -75 455 -81 815 -7 398 10 605 79 965 91 475 296 1000 559 1432 92
152 110 178 231 344 225 310 538 636 818 851 41 32 94 73 119 92 61 47 253
176 360 241 19 12 53 33 76 47 75 48 468 236 579 278 264 100 474 164 686 211
145 31 192 39 469 79 36 5 108 10 160 10 52 1 104 5 115 10 26 11 413 6 615
-9z"/>
<path d="M5240 9460 c-137 -9 -357 -34 -432 -50 -27 -6 -69 -14 -95 -20 -92
-18 -229 -50 -283 -66 -153 -44 -345 -108 -435 -145 -11 -4 -47 -19 -80 -33
-179 -73 -466 -228 -649 -350 -268 -179 -398 -286 -647 -535 -228 -229 -369
-399 -507 -614 -32 -49 -76 -118 -100 -155 -94 -145 -293 -567 -339 -717 -9
-27 -19 -54 -23 -60 -4 -5 -15 -37 -24 -70 -10 -33 -26 -87 -36 -120 -119
-381 -174 -871 -151 -1337 5 -117 17 -260 25 -318 21 -145 44 -291 50 -315 3
-11 19 -76 35 -145 102 -426 335 -949 581 -1299 36 -51 72 -103 80 -115 133
-194 404 -486 649 -699 366 -318 831 -587 1296 -750 144 -51 337 -106 465
-132 47 -9 112 -23 145 -30 80 -18 177 -31 372 -51 284 -28 831 -7 1056 41 40
8 104 22 142 30 39 9 94 20 124 25 30 5 72 16 95 24 22 8 77 24 121 36 71 20
138 43 365 127 83 31 330 153 485 239 313 175 675 458 927 725 124 132 140
151 255 298 235 302 414 606 563 961 87 206 184 525 224 735 10 50 22 108 27
130 23 99 50 385 47 498 l-3 92 -240 8 c-132 4 -656 8 -1165 10 l-925 2 -3
1410 c-1 776 0 1415 2 1422 8 19 239 -143 397 -277 71 -61 295 -285 342 -343
21 -26 46 -47 55 -47 9 0 44 21 76 48 32 26 73 58 91 72 18 14 57 45 87 70 30
25 123 101 206 169 94 76 152 131 152 142 0 10 -42 62 -92 116 -51 54 -104
111 -118 126 -60 67 -265 254 -376 344 -165 134 -364 271 -539 370 -217 122
-607 294 -769 338 -28 7 -85 23 -126 35 -149 43 -220 60 -425 100 -224 43
-686 68 -955 50z m606 -820 c156 -16 411 -63 427 -79 6 -6 -15 -52 -53 -118
-35 -59 -80 -137 -100 -173 -35 -62 -69 -120 -190 -325 -111 -189 -187 -319
-363 -625 -11 -19 -27 -47 -36 -62 -9 -14 -52 -88 -95 -165 -44 -76 -94 -163
-111 -193 -18 -30 -48 -82 -67 -115 -19 -33 -40 -60 -48 -60 -12 0 -238 379
-321 540 -18 33 -46 83 -63 110 -18 28 -49 82 -71 120 -21 39 -64 114 -97 167
-32 54 -58 100 -58 103 0 4 -16 34 -36 68 -184 312 -317 554 -312 569 9 25
359 139 567 184 109 23 253 46 336 54 125 11 582 11 691 0z m-2656 -3244 c0
-1251 -4 -2277 -8 -2280 -10 -6 -202 186 -202 201 0 5 -22 35 -48 66 -108 128
-270 384 -363 576 -298 612 -395 1286 -285 1976 34 212 80 381 173 635 42 116
175 389 244 502 96 157 255 371 354 478 28 30 62 70 74 88 12 17 31 32 42 32
19 0 19 -33 19 -2274z m887 1839 c61 -104 122 -212 137 -240 14 -27 30 -57 36
-65 16 -26 226 -393 256 -448 16 -29 82 -145 148 -258 65 -113 125 -219 134
-237 8 -18 54 -90 100 -162 47 -71 118 -182 160 -245 41 -63 92 -140 113 -172
22 -31 39 -61 39 -67 0 -17 21 -13 37 7 7 9 20 31 28 47 9 17 37 66 65 110 27
44 59 98 71 120 12 22 38 65 59 95 20 30 52 82 70 115 19 33 59 101 91 150 51
82 87 143 264 450 31 55 92 159 135 230 42 72 92 157 110 190 18 33 40 74 49
90 9 17 24 41 33 55 24 38 148 249 176 300 99 179 116 203 123 184 4 -10 8
-884 8 -1942 l1 -1922 353 2 352 3 5 495 5 495 709 3 c391 1 713 -1 718 -6 22
-22 -96 -375 -200 -597 -122 -258 -250 -463 -436 -696 -76 -95 -359 -378 -455
-455 -263 -211 -565 -389 -846 -499 -181 -70 -184 -71 -270 -95 -44 -12 -91
-27 -104 -32 -14 -5 -43 -13 -65 -17 -23 -5 -86 -18 -141 -29 -164 -33 -223
-41 -380 -53 -288 -22 -681 2 -920 56 -38 8 -90 20 -115 25 -25 5 -76 19 -115
30 -38 12 -93 28 -121 35 -46 13 -90 29 -149 54 -11 5 -42 17 -69 26 -27 10
-122 54 -210 99 l-161 81 -2 2505 -2 2505 33 -65 c18 -36 82 -150 143 -255z"/>
</g>
</svg>
